# xmcd
#
# Track frame offsets:
#	150
#	5039
#	20667
#	39250
#	65443
#	85905
#	106908
#	121156
#	144457
#	156113
#
# Disc length: 2443 seconds
#
# Revision: 13
# Processed by: cddbd v1.5.2PL0 Copyright (c) Steve Scherf et al.
# Submitted via: Jack! The Knife 20 Magnifico
#
DISCID=7909890a
DTITLE=Celtic Frost - To Mega Therion
DYEAR=1985
DGENRE=Metal
TTITLE0=Innocence And Wrath
TTITLE1=The Usurper
TTITLE2=Jewel Throne
TTITLE3=Dawn Of Meggido
TTITLE4=Eternal Summer
TTITLE5=Circle Of The Tyrants
TTITLE6=(Beyond The) North Winds
TTITLE7=Fainted Eyes
TTITLE8=Tears In A Prophet's Dream
TTITLE9=Necromantical Screams
EXTD=Horst Müller
EXTT0=Tom Gabriel Warrior
EXTT1=Tom Gabriel Warrior
EXTT2=Tom Gabriel Warrior
EXTT3=Ain, Warrior
EXTT4=Tom Gabriel Warrior
EXTT5=Tom Gabriel Warrior
EXTT6=Tom Gabriel Warrior
EXTT7=Tom Gabriel Warrior
EXTT8=Tom Gabriel Warrior
EXTT9=Tom Gabriel Warrior
PLAYORDER=
